<svg width="16" height="16" viewBox="0 0 16 16" fill="none" xmlns="http://www.w3.org/2000/svg">
<path d="M10 7.66667V3.66667L8 1.66667L6 3.66667V5H2V14.3333H14V7.66667H10ZM4.66667 13H3.33333V11.6667H4.66667V13ZM4.66667 10.3333H3.33333V9H4.66667V10.3333ZM4.66667 7.66667H3.33333V6.33333H4.66667V7.66667ZM8.66667 13H7.33333V11.6667H8.66667V13ZM8.66667 10.3333H7.33333V9H8.66667V10.3333ZM8.66667 7.66667H7.33333V6.33333H8.66667V7.66667ZM8.66667 5H7.33333V3.66667H8.66667V5ZM12.6667 13H11.3333V11.6667H12.6667V13ZM12.6667 10.3333H11.3333V9H12.6667V10.3333Z" fill="#606060"/>
</svg>
