<svg width="16" height="16" viewBox="0 0 16 16" fill="none" xmlns="http://www.w3.org/2000/svg">
<path d="M12.2593 10.04C11.1393 9.46666 9.68602 9 7.99935 9C6.31268 9 4.85935 9.46666 3.73935 10.04C3.07268 10.38 2.66602 11.0667 2.66602 11.8133V13.6667H13.3327V11.8133C13.3327 11.0667 12.926 10.38 12.2593 10.04ZM11.9993 12.3333H3.99935V11.8133C3.99935 11.56 4.13268 11.3333 4.34602 11.2267C5.13935 10.82 6.41935 10.3333 7.99935 10.3333C9.57935 10.3333 10.8593 10.82 11.6527 11.2267C11.866 11.3333 11.9993 11.56 11.9993 11.8133V12.3333Z" fill="#606060"/>
<path d="M7.99935 8.33333C9.47268 8.33333 10.666 7.14 10.666 5.66666C10.666 4.75333 10.666 3.33333 10.666 3.33333C10.666 2.77999 10.2193 2.33333 9.66602 2.33333C9.31935 2.33333 9.01268 2.51333 8.83268 2.77999C8.65268 2.51333 8.34602 2.33333 7.99935 2.33333C7.65268 2.33333 7.34602 2.51333 7.16602 2.77999C6.98602 2.51333 6.67935 2.33333 6.33268 2.33333C5.77935 2.33333 5.33268 2.77999 5.33268 3.33333C5.33268 3.33333 5.33268 4.74666 5.33268 5.66666C5.33268 7.14 6.52602 8.33333 7.99935 8.33333ZM6.66602 3.99999H9.33268V5.66666C9.33268 6.4 8.73268 7 7.99935 7C7.26602 7 6.66602 6.4 6.66602 5.66666V3.99999Z" fill="#606060"/>
</svg>
