<svg width="16" height="16" viewBox="0 0 16 16" fill="none" xmlns="http://www.w3.org/2000/svg">
<path d="M10.666 0.666672H5.33268C4.41268 0.666672 3.66602 1.41334 3.66602 2.33334V13.6667C3.66602 14.5867 4.41268 15.3333 5.33268 15.3333H10.666C11.586 15.3333 12.3327 14.5867 12.3327 13.6667V2.33334C12.3327 1.41334 11.586 0.666672 10.666 0.666672ZM7.99935 14.6667C7.44602 14.6667 6.99935 14.22 6.99935 13.6667C6.99935 13.1133 7.44602 12.6667 7.99935 12.6667C8.55268 12.6667 8.99935 13.1133 8.99935 13.6667C8.99935 14.22 8.55268 14.6667 7.99935 14.6667ZM10.9993 12H4.99935V2.66667H10.9993V12Z" fill="#606060"/>
</svg>
