<?xml version="1.0" encoding="UTF-8"?>
<svg xmlns="http://www.w3.org/2000/svg" xmlns:xlink="http://www.w3.org/1999/xlink" width="px" height="28px" viewBox="0 0 28 28" version="1.1">
<g id="surface1">
<path style=" stroke:none;fill-rule:nonzero;fill:rgb(79.607843%,79.607843%,79.607843%);fill-opacity:1;" d="M 11.761719 12.671875 C 11.816406 12.285156 11.945312 11.945312 12.109375 11.65625 C 12.273438 11.363281 12.507812 11.117188 12.796875 10.933594 C 13.078125 10.757812 13.429688 10.675781 13.859375 10.664062 C 14.128906 10.675781 14.375 10.722656 14.59375 10.816406 C 14.828125 10.921875 15.039062 11.058594 15.203125 11.234375 C 15.363281 11.410156 15.492188 11.621094 15.597656 11.851562 C 15.703125 12.085938 15.75 12.34375 15.761719 12.601562 L 17.851562 12.601562 C 17.828125 12.050781 17.722656 11.550781 17.523438 11.09375 C 17.324219 10.640625 17.058594 10.242188 16.707031 9.917969 C 16.355469 9.589844 15.9375 9.332031 15.445312 9.148438 C 14.957031 8.960938 14.421875 8.878906 13.824219 8.878906 C 13.066406 8.878906 12.402344 9.007812 11.839844 9.273438 C 11.28125 9.542969 10.816406 9.894531 10.441406 10.347656 C 10.066406 10.804688 9.789062 11.328125 9.613281 11.933594 C 9.4375 12.542969 9.332031 13.171875 9.332031 13.847656 L 9.332031 14.164062 C 9.332031 14.839844 9.425781 15.46875 9.601562 16.078125 C 9.777344 16.683594 10.058594 17.207031 10.429688 17.652344 C 10.804688 18.09375 11.269531 18.457031 11.828125 18.714844 C 12.390625 18.96875 13.054688 19.109375 13.8125 19.109375 C 14.363281 19.109375 14.875 19.015625 15.351562 18.839844 C 15.832031 18.667969 16.25 18.421875 16.613281 18.105469 C 16.976562 17.792969 17.265625 17.429688 17.476562 17.011719 C 17.6875 16.589844 17.816406 16.148438 17.828125 15.667969 L 15.738281 15.667969 C 15.726562 15.914062 15.667969 16.136719 15.5625 16.34375 C 15.457031 16.554688 15.316406 16.730469 15.144531 16.882812 C 14.96875 17.035156 14.769531 17.148438 14.535156 17.230469 C 14.316406 17.3125 14.082031 17.335938 13.835938 17.347656 C 13.417969 17.335938 13.066406 17.253906 12.796875 17.078125 C 12.507812 16.894531 12.273438 16.648438 12.109375 16.355469 C 11.945312 16.066406 11.816406 15.714844 11.761719 15.328125 C 11.703125 14.945312 11.667969 14.546875 11.667969 14.164062 L 11.667969 13.847656 C 11.667969 13.441406 11.703125 13.054688 11.761719 12.671875 Z M 14 2.332031 C 7.558594 2.332031 2.332031 7.558594 2.332031 14 C 2.332031 20.441406 7.558594 25.667969 14 25.667969 C 20.441406 25.667969 25.667969 20.441406 25.667969 14 C 25.667969 7.558594 20.441406 2.332031 14 2.332031 Z M 14 23.332031 C 8.855469 23.332031 4.667969 19.144531 4.667969 14 C 4.667969 8.855469 8.855469 4.667969 14 4.667969 C 19.144531 4.667969 23.332031 8.855469 23.332031 14 C 23.332031 19.144531 19.144531 23.332031 14 23.332031 Z M 14 23.332031 "/>
</g>
</svg>
