<svg width="16" height="14" viewBox="0 0 16 14" fill="none" xmlns="http://www.w3.org/2000/svg">
<path d="M8.00033 2.98334C10.527 2.98334 12.7803 4.40334 13.8803 6.65C13.487 7.46334 12.9337 8.16334 12.2737 8.73L13.2137 9.67C14.1403 8.85 14.8737 7.82334 15.3337 6.65C14.1803 3.72334 11.3337 1.65 8.00033 1.65C7.15366 1.65 6.34032 1.78334 5.57366 2.03L6.67366 3.13C7.10699 3.04334 7.54699 2.98334 8.00033 2.98334ZM7.28699 3.74334L8.66699 5.12334C9.04699 5.29 9.35366 5.59667 9.52032 5.97667L10.9003 7.35667C10.9537 7.13 10.9937 6.89 10.9937 6.64334C11.0003 4.99 9.65366 3.65 8.00033 3.65C7.75366 3.65 7.52033 3.68334 7.28699 3.74334ZM1.34033 1.56334L3.12699 3.35C2.04033 4.20334 1.18033 5.33667 0.666992 6.65C1.82033 9.57667 4.66699 11.65 8.00033 11.65C9.01366 11.65 9.98699 11.4567 10.8803 11.1033L13.1603 13.3833L14.1003 12.4433L2.28033 0.616669L1.34033 1.56334ZM6.34033 6.56334L8.08033 8.30334C8.05366 8.31 8.02699 8.31667 8.00033 8.31667C7.08033 8.31667 6.33366 7.57 6.33366 6.65C6.33366 6.61667 6.34033 6.59667 6.34033 6.56334ZM4.07366 4.29667L5.24033 5.46334C5.08699 5.83 5.00033 6.23 5.00033 6.65C5.00033 8.30334 6.34699 9.65 8.00033 9.65C8.42033 9.65 8.82033 9.56334 9.18033 9.41L9.83366 10.0633C9.24699 10.2233 8.63366 10.3167 8.00033 10.3167C5.47366 10.3167 3.22033 8.89667 2.12033 6.65C2.58699 5.69667 3.26699 4.91 4.07366 4.29667Z" fill="#606060"/>
</svg>
