<?xml version="1.0" encoding="UTF-8"?>
<svg xmlns="http://www.w3.org/2000/svg" xmlns:xlink="http://www.w3.org/1999/xlink" width="px" height="28px" viewBox="0 0 28 28" version="1.1">
<g id="surface1">
<path style=" stroke:none;fill-rule:nonzero;fill:rgb(100%,100%,100%);fill-opacity:1;" d="M 14 0 C 21.730469 0 28 6.269531 28 14 C 28 21.730469 21.730469 28 14 28 C 6.269531 28 0 21.730469 0 14 C 0 6.269531 6.269531 0 14 0 Z M 14 0 "/>
<path style=" stroke:none;fill-rule:nonzero;fill:rgb(25.098039%,25.098039%,25.098039%);fill-opacity:1;" d="M 20.070312 14 L 19.449219 18.046875 L 16.1875 18.046875 L 16.1875 27.832031 C 15.472656 27.941406 14.742188 28 14 28 C 13.257812 28 12.527344 27.941406 11.8125 27.832031 L 11.8125 18.046875 L 8.257812 18.046875 L 8.257812 14 L 11.8125 14 L 11.8125 10.914062 C 11.8125 7.40625 13.902344 5.46875 17.101562 5.46875 C 18.632812 5.46875 20.234375 5.742188 20.234375 5.742188 L 20.234375 9.1875 L 18.46875 9.1875 C 16.730469 9.1875 16.1875 10.265625 16.1875 11.375 L 16.1875 14 Z M 20.070312 14 "/>
</g>
</svg>
