<?xml version="1.0" encoding="UTF-8"?>
<svg xmlns="http://www.w3.org/2000/svg" xmlns:xlink="http://www.w3.org/1999/xlink" width="px" height="28px" viewBox="0 0 28 28" version="1.1">
<g id="surface1">
<path style=" stroke:none;fill-rule:nonzero;fill:rgb(0%,0%,0%);fill-opacity:1;" d="M 24.382812 2.332031 L 3.617188 2.332031 C 2.90625 2.332031 2.332031 2.90625 2.332031 3.617188 L 2.332031 24.382812 C 2.332031 25.09375 2.90625 25.667969 3.617188 25.667969 L 14.792969 25.667969 L 14.792969 16.625 L 11.761719 16.625 L 11.761719 13.125 L 14.792969 13.125 L 14.792969 10.5 C 14.667969 9.253906 15.097656 8.011719 15.96875 7.113281 C 16.84375 6.210938 18.070312 5.746094 19.320312 5.832031 C 20.226562 5.828125 21.136719 5.875 22.039062 5.972656 L 22.039062 9.125 L 20.183594 9.125 C 18.714844 9.125 18.433594 9.824219 18.433594 10.839844 L 18.433594 13.089844 L 21.933594 13.089844 L 21.476562 16.589844 L 18.433594 16.589844 L 18.433594 25.667969 L 24.382812 25.667969 C 25.09375 25.667969 25.667969 25.09375 25.667969 24.382812 L 25.667969 3.617188 C 25.667969 2.90625 25.09375 2.332031 24.382812 2.332031 Z M 24.382812 2.332031 "/>
</g>
</svg>
