<?xml version="1.0" encoding="UTF-8"?>
<svg xmlns="http://www.w3.org/2000/svg" xmlns:xlink="http://www.w3.org/1999/xlink" width="px" height="28px" viewBox="0 0 28 28" version="1.1">
<g id="surface1">
<rect x="0" y="0" width="28" height="28" style="fill:rgb(100%,100%,100%);fill-opacity:1;stroke:none;"/>
<path style=" stroke:none;fill-rule:nonzero;fill:rgb(25.882353%,52.156863%,95.686275%);fill-opacity:1;" d="M 14.285156 11.453125 L 14.285156 16.875 L 21.972656 16.875 C 21.636719 18.617188 20.625 20.09375 19.105469 21.085938 L 23.738281 24.613281 C 26.441406 22.167969 28 18.582031 28 14.316406 C 28 13.324219 27.910156 12.371094 27.738281 11.453125 Z M 14.285156 11.453125 "/>
<path style=" stroke:none;fill-rule:nonzero;fill:rgb(20.392157%,65.882353%,32.54902%);fill-opacity:1;" d="M 6.28125 16.664062 L 5.234375 17.449219 L 1.53125 20.277344 C 3.882812 24.84375 8.699219 28 14.285156 28 C 18.140625 28 21.375 26.753906 23.738281 24.617188 L 19.105469 21.089844 C 17.832031 21.929688 16.207031 22.4375 14.285156 22.4375 C 10.570312 22.4375 7.414062 19.984375 6.285156 16.671875 Z M 6.28125 16.664062 "/>
<path style=" stroke:none;fill-rule:nonzero;fill:rgb(98.431373%,73.72549%,1.960784%);fill-opacity:1;" d="M 1.53125 7.726562 C 0.558594 9.609375 0 11.734375 0 14 C 0 16.265625 0.558594 18.390625 1.53125 20.273438 C 1.53125 20.285156 6.285156 16.660156 6.285156 16.660156 C 6 15.820312 5.832031 14.929688 5.832031 14 C 5.832031 13.070312 6 12.179688 6.285156 11.339844 Z M 1.53125 7.726562 "/>
<path style=" stroke:none;fill-rule:nonzero;fill:rgb(91.764706%,26.27451%,20.784314%);fill-opacity:1;" d="M 14.285156 5.574219 C 16.390625 5.574219 18.257812 6.289062 19.753906 7.660156 L 23.84375 3.652344 C 21.363281 1.386719 18.144531 0 14.285156 0 C 8.703125 0 3.882812 3.144531 1.53125 7.726562 L 6.285156 11.339844 C 7.414062 8.03125 10.570312 5.574219 14.285156 5.574219 Z M 14.285156 5.574219 "/>
</g>
</svg>
