<?xml version="1.0" encoding="UTF-8"?>
<svg xmlns="http://www.w3.org/2000/svg" xmlns:xlink="http://www.w3.org/1999/xlink" width="px" height="28px" viewBox="0 0 28 28" version="1.1">
<g id="surface1">
<path style=" stroke:none;fill-rule:nonzero;fill:rgb(37.647059%,37.647059%,37.647059%);fill-opacity:1;" d="M 21.453125 17.570312 C 19.492188 16.566406 16.949219 15.75 14 15.75 C 11.046875 15.75 8.503906 16.566406 6.542969 17.570312 C 5.378906 18.164062 4.664062 19.367188 4.664062 20.671875 L 4.664062 23.917969 L 23.332031 23.917969 L 23.332031 20.671875 C 23.332031 19.367188 22.621094 18.164062 21.453125 17.570312 Z M 21 21.582031 L 7 21.582031 L 7 20.671875 C 7 20.230469 7.230469 19.832031 7.605469 19.648438 C 8.992188 18.933594 11.234375 18.082031 14 18.082031 C 16.765625 18.082031 19.003906 18.933594 20.390625 19.648438 C 20.765625 19.832031 21 20.230469 21 20.671875 Z M 21 21.582031 "/>
<path style=" stroke:none;fill-rule:nonzero;fill:rgb(37.647059%,37.647059%,37.647059%);fill-opacity:1;" d="M 14 14.582031 C 16.578125 14.582031 18.664062 12.496094 18.664062 9.917969 C 18.664062 8.316406 18.664062 5.832031 18.664062 5.832031 C 18.664062 4.863281 17.882812 4.082031 16.914062 4.082031 C 16.308594 4.082031 15.773438 4.398438 15.457031 4.863281 C 15.140625 4.398438 14.605469 4.082031 14 4.082031 C 13.390625 4.082031 12.855469 4.398438 12.539062 4.863281 C 12.226562 4.398438 11.6875 4.082031 11.082031 4.082031 C 10.113281 4.082031 9.332031 4.863281 9.332031 5.832031 C 9.332031 5.832031 9.332031 8.308594 9.332031 9.917969 C 9.332031 12.496094 11.421875 14.582031 14 14.582031 Z M 11.664062 7 L 16.332031 7 L 16.332031 9.917969 C 16.332031 11.199219 15.28125 12.25 14 12.25 C 12.714844 12.25 11.664062 11.199219 11.664062 9.917969 Z M 11.664062 7 "/>
</g>
</svg>
