<?xml version="1.0" encoding="UTF-8"?>
<svg xmlns="http://www.w3.org/2000/svg" xmlns:xlink="http://www.w3.org/1999/xlink" width="px" height="28px" viewBox="0 0 28 28" version="1.1">
<g id="surface1">
<path style=" stroke:none;fill-rule:nonzero;fill:rgb(100%,100%,100%);fill-opacity:1;" d="M 27.921875 8.226562 C 27.855469 6.738281 27.613281 5.714844 27.273438 4.824219 C 26.914062 3.90625 26.4375 3.121094 25.660156 2.347656 C 24.878906 1.574219 24.101562 1.085938 23.183594 0.734375 C 22.292969 0.386719 21.273438 0.152344 19.78125 0.0859375 C 18.289062 0.015625 17.8125 0 14.015625 0 C 10.210938 0 9.734375 0.015625 8.246094 0.0859375 C 6.753906 0.152344 5.734375 0.390625 4.84375 0.734375 C 3.921875 1.09375 3.136719 1.570312 2.363281 2.347656 C 1.589844 3.128906 1.101562 3.90625 0.75 4.824219 C 0.410156 5.714844 0.167969 6.738281 0.101562 8.226562 C 0.0351562 9.722656 0.015625 10.199219 0.015625 14 C 0.015625 17.804688 0.0351562 18.28125 0.101562 19.773438 C 0.167969 21.261719 0.410156 22.285156 0.75 23.175781 C 1.109375 24.09375 1.585938 24.878906 2.363281 25.652344 C 3.136719 26.429688 3.921875 26.914062 4.839844 27.265625 C 5.730469 27.613281 6.75 27.847656 8.238281 27.914062 C 9.734375 27.984375 10.210938 28 14.007812 28 C 17.8125 28 18.289062 27.984375 19.777344 27.914062 C 21.265625 27.847656 22.285156 27.609375 23.175781 27.265625 C 24.097656 26.90625 24.878906 26.429688 25.652344 25.652344 C 26.425781 24.871094 26.914062 24.09375 27.265625 23.175781 C 27.613281 22.285156 27.847656 21.261719 27.914062 19.773438 C 27.984375 18.277344 28 17.800781 28 14 C 28 10.199219 27.988281 9.71875 27.921875 8.226562 Z M 25.40625 19.660156 C 25.34375 21.027344 25.117188 21.773438 24.925781 22.261719 C 24.671875 22.910156 24.363281 23.382812 23.871094 23.875 C 23.378906 24.367188 22.914062 24.664062 22.257812 24.929688 C 21.765625 25.121094 21.019531 25.347656 19.660156 25.410156 C 18.1875 25.476562 17.746094 25.496094 14.003906 25.496094 C 10.261719 25.496094 9.820312 25.476562 8.34375 25.410156 C 6.980469 25.347656 6.234375 25.121094 5.746094 24.929688 C 5.097656 24.675781 4.625 24.367188 4.132812 23.875 C 3.640625 23.382812 3.34375 22.917969 3.082031 22.261719 C 2.890625 21.769531 2.660156 21.023438 2.597656 19.660156 C 2.53125 18.1875 2.515625 17.742188 2.515625 14 C 2.515625 10.257812 2.53125 9.8125 2.597656 8.339844 C 2.660156 6.972656 2.890625 6.226562 3.082031 5.738281 C 3.332031 5.089844 3.640625 4.617188 4.132812 4.125 C 4.625 3.632812 5.089844 3.335938 5.746094 3.070312 C 6.238281 2.878906 6.984375 2.652344 8.34375 2.589844 C 9.820312 2.523438 10.261719 2.503906 14.003906 2.503906 C 17.746094 2.503906 18.1875 2.523438 19.660156 2.589844 C 21.027344 2.652344 21.773438 2.878906 22.257812 3.070312 C 22.910156 3.324219 23.378906 3.632812 23.871094 4.125 C 24.363281 4.617188 24.660156 5.082031 24.925781 5.738281 C 25.117188 6.230469 25.34375 6.976562 25.40625 8.339844 C 25.472656 9.8125 25.492188 10.257812 25.492188 14 C 25.492188 17.742188 25.46875 18.1875 25.40625 19.660156 Z M 25.40625 19.660156 "/>
<path style=" stroke:none;fill-rule:nonzero;fill:rgb(100%,100%,100%);fill-opacity:1;" d="M 14.003906 6.804688 C 10.027344 6.804688 6.8125 10.027344 6.8125 14 C 6.8125 17.980469 10.03125 21.195312 14.003906 21.195312 C 17.972656 21.195312 21.195312 17.96875 21.195312 14 C 21.195312 10.019531 17.980469 6.804688 14.003906 6.804688 Z M 14.003906 18.667969 C 11.425781 18.667969 9.335938 16.578125 9.335938 14 C 9.335938 11.421875 11.425781 9.332031 14.003906 9.332031 C 16.578125 9.332031 18.667969 11.421875 18.667969 14 C 18.667969 16.578125 16.578125 18.667969 14.003906 18.667969 Z M 14.003906 18.667969 "/>
<path style=" stroke:none;fill-rule:nonzero;fill:rgb(100%,100%,100%);fill-opacity:1;" d="M 21.472656 8.207031 C 22.402344 8.207031 23.15625 7.453125 23.15625 6.527344 C 23.15625 5.597656 22.402344 4.84375 21.472656 4.84375 C 20.546875 4.84375 19.792969 5.597656 19.792969 6.527344 C 19.792969 7.453125 20.546875 8.207031 21.472656 8.207031 Z M 21.472656 8.207031 "/>
<path style=" stroke:none;fill-rule:nonzero;fill:rgb(100%,100%,100%);fill-opacity:1;" d="M 0 14 C 0 17.804688 0.015625 18.28125 0.0859375 19.773438 C 0.152344 21.261719 0.390625 22.285156 0.734375 23.175781 C 1.09375 24.09375 1.566406 24.878906 2.347656 25.652344 C 3.121094 26.425781 3.902344 26.914062 4.824219 27.265625 C 5.714844 27.613281 6.734375 27.847656 8.222656 27.914062 C 9.71875 27.984375 10.195312 28 13.992188 28 C 17.792969 28 18.269531 27.984375 19.761719 27.914062 C 21.25 27.847656 22.269531 27.609375 23.160156 27.265625 C 24.078125 26.90625 24.863281 26.429688 25.636719 25.652344 C 26.410156 24.878906 26.898438 24.09375 27.25 23.175781 C 27.597656 22.285156 27.832031 21.261719 27.898438 19.773438 C 27.964844 18.277344 27.984375 17.800781 27.984375 14 C 27.984375 10.195312 27.964844 9.71875 27.898438 8.226562 C 27.832031 6.738281 27.589844 5.714844 27.25 4.824219 C 26.890625 3.90625 26.414062 3.121094 25.636719 2.347656 C 24.867188 1.570312 24.085938 1.085938 23.167969 0.734375 C 22.277344 0.386719 21.257812 0.152344 19.765625 0.0859375 C 18.269531 0.015625 17.792969 0 13.996094 0 C 10.195312 0 9.71875 0.015625 8.226562 0.0859375 C 6.738281 0.152344 5.71875 0.390625 4.828125 0.734375 C 3.910156 1.09375 3.125 1.570312 2.351562 2.347656 C 1.578125 3.128906 1.09375 3.90625 0.738281 4.824219 C 0.390625 5.714844 0.152344 6.738281 0.0859375 8.226562 C 0.015625 9.71875 0 10.195312 0 14 Z M 2.527344 14 C 2.527344 10.261719 2.542969 9.8125 2.609375 8.339844 C 2.671875 6.972656 2.902344 6.226562 3.09375 5.738281 C 3.34375 5.089844 3.652344 4.617188 4.144531 4.125 C 4.636719 3.632812 5.101562 3.335938 5.757812 3.070312 C 6.25 2.878906 6.996094 2.652344 8.355469 2.589844 C 9.828125 2.523438 10.273438 2.503906 14.015625 2.503906 C 17.753906 2.503906 18.199219 2.523438 19.671875 2.589844 C 21.039062 2.652344 21.78125 2.878906 22.269531 3.070312 C 22.917969 3.324219 23.390625 3.632812 23.882812 4.125 C 24.375 4.617188 24.671875 5.082031 24.9375 5.738281 C 25.125 6.230469 25.355469 6.976562 25.417969 8.339844 C 25.484375 9.8125 25.5 10.257812 25.5 14 C 25.5 17.742188 25.484375 18.1875 25.417969 19.660156 C 25.355469 21.027344 25.125 21.773438 24.9375 22.261719 C 24.683594 22.910156 24.375 23.382812 23.882812 23.875 C 23.390625 24.367188 22.925781 24.664062 22.269531 24.929688 C 21.777344 25.121094 21.03125 25.347656 19.671875 25.410156 C 18.199219 25.476562 17.753906 25.496094 14.015625 25.496094 C 10.273438 25.496094 9.828125 25.476562 8.355469 25.410156 C 6.988281 25.347656 6.246094 25.121094 5.757812 24.929688 C 5.109375 24.675781 4.636719 24.367188 4.144531 23.875 C 3.652344 23.382812 3.355469 22.917969 3.09375 22.261719 C 2.902344 21.769531 2.671875 21.023438 2.609375 19.660156 C 2.539062 18.1875 2.527344 17.738281 2.527344 14 Z M 2.527344 14 "/>
</g>
</svg>
