<?xml version="1.0" encoding="UTF-8"?>
<svg xmlns="http://www.w3.org/2000/svg" xmlns:xlink="http://www.w3.org/1999/xlink" width="px" height="28px" viewBox="0 0 28 28" version="1.1">
<g id="surface1">
<path style=" stroke:none;fill-rule:nonzero;fill:rgb(0%,0%,0%);fill-opacity:1;" d="M 20.230469 6.371094 C 19.457031 6.371094 18.828125 6.996094 18.828125 7.769531 C 18.828125 8.542969 19.457031 9.171875 20.230469 9.171875 C 21.003906 9.171875 21.628906 8.542969 21.628906 7.769531 C 21.628906 6.996094 21.003906 6.371094 20.230469 6.371094 Z M 25.597656 9.191406 C 25.574219 8.226562 25.394531 7.269531 25.058594 6.359375 C 24.761719 5.582031 24.300781 4.875 23.707031 4.292969 C 23.128906 3.695312 22.421875 3.238281 21.640625 2.953125 C 20.734375 2.609375 19.777344 2.421875 18.808594 2.402344 C 17.570312 2.332031 17.171875 2.332031 14 2.332031 C 10.828125 2.332031 10.429688 2.332031 9.191406 2.402344 C 8.222656 2.421875 7.265625 2.609375 6.359375 2.953125 C 5.578125 3.238281 4.875 3.699219 4.292969 4.292969 C 3.695312 4.871094 3.238281 5.578125 2.953125 6.359375 C 2.609375 7.265625 2.421875 8.222656 2.402344 9.191406 C 2.332031 10.429688 2.332031 10.828125 2.332031 14 C 2.332031 17.171875 2.332031 17.570312 2.402344 18.808594 C 2.421875 19.777344 2.609375 20.734375 2.953125 21.640625 C 3.238281 22.421875 3.695312 23.128906 4.292969 23.707031 C 4.875 24.300781 5.578125 24.761719 6.359375 25.046875 C 7.265625 25.390625 8.222656 25.578125 9.191406 25.597656 C 10.429688 25.667969 10.828125 25.667969 14 25.667969 C 17.171875 25.667969 17.570312 25.667969 18.808594 25.597656 C 19.777344 25.578125 20.734375 25.390625 21.640625 25.046875 C 22.421875 24.761719 23.128906 24.304688 23.707031 23.707031 C 24.304688 23.125 24.765625 22.421875 25.058594 21.640625 C 25.394531 20.730469 25.574219 19.773438 25.597656 18.808594 C 25.597656 17.570312 25.667969 17.171875 25.667969 14 C 25.667969 10.828125 25.667969 10.429688 25.597656 9.191406 Z M 23.496094 18.667969 C 23.488281 19.40625 23.355469 20.140625 23.101562 20.835938 C 22.914062 21.34375 22.613281 21.804688 22.226562 22.179688 C 21.847656 22.5625 21.390625 22.863281 20.882812 23.054688 C 20.1875 23.308594 19.453125 23.441406 18.714844 23.449219 C 17.546875 23.507812 17.113281 23.519531 14.046875 23.519531 C 10.976562 23.519531 10.546875 23.519531 9.378906 23.449219 C 8.609375 23.464844 7.84375 23.347656 7.117188 23.101562 C 6.632812 22.898438 6.195312 22.601562 5.832031 22.226562 C 5.445312 21.851562 5.152344 21.390625 4.96875 20.882812 C 4.683594 20.175781 4.527344 19.425781 4.503906 18.667969 C 4.503906 17.5 4.433594 17.066406 4.433594 14 C 4.433594 10.933594 4.433594 10.5 4.503906 9.332031 C 4.507812 8.578125 4.648438 7.824219 4.910156 7.117188 C 5.117188 6.625 5.433594 6.183594 5.832031 5.832031 C 6.1875 5.433594 6.625 5.113281 7.117188 4.898438 C 7.828125 4.644531 8.578125 4.507812 9.332031 4.503906 C 10.5 4.503906 10.933594 4.433594 14 4.433594 C 17.066406 4.433594 17.5 4.433594 18.667969 4.503906 C 19.40625 4.511719 20.140625 4.644531 20.835938 4.898438 C 21.367188 5.097656 21.84375 5.417969 22.226562 5.832031 C 22.605469 6.191406 22.90625 6.628906 23.101562 7.117188 C 23.359375 7.828125 23.492188 8.578125 23.496094 9.332031 C 23.554688 10.5 23.566406 10.933594 23.566406 14 C 23.566406 17.066406 23.554688 17.5 23.496094 18.667969 Z M 14 8.015625 C 10.695312 8.019531 8.023438 10.703125 8.027344 14.007812 C 8.03125 17.3125 10.710938 19.988281 14.015625 19.984375 C 17.320312 19.984375 19.996094 17.304688 19.996094 14 C 20 12.410156 19.367188 10.882812 18.242188 9.761719 C 17.117188 8.636719 15.589844 8.007812 14 8.015625 Z M 14 17.886719 C 11.855469 17.886719 10.113281 16.144531 10.113281 14 C 10.113281 11.855469 11.855469 10.113281 14 10.113281 C 16.144531 10.113281 17.886719 11.855469 17.886719 14 C 17.886719 16.144531 16.144531 17.886719 14 17.886719 Z M 14 17.886719 "/>
</g>
</svg>
