<svg width="65" height="65" viewBox="0 0 65 65" fill="none" xmlns="http://www.w3.org/2000/svg">
<g id="check_circle">
<path id="Vector" d="M32.4993 5.41666C17.5493 5.41666 5.41602 17.55 5.41602 32.5C5.41602 47.45 17.5493 59.5833 32.4993 59.5833C47.4493 59.5833 59.5827 47.45 59.5827 32.5C59.5827 17.55 47.4493 5.41666 32.4993 5.41666ZM32.4993 54.1667C20.5556 54.1667 10.8327 44.4437 10.8327 32.5C10.8327 20.5562 20.5556 10.8333 32.4993 10.8333C44.4431 10.8333 54.166 20.5562 54.166 32.5C54.166 44.4437 44.4431 54.1667 32.4993 54.1667ZM44.9306 20.5292L27.0827 38.3771L20.0681 31.3896L16.2493 35.2083L27.0827 46.0417L48.7493 24.375L44.9306 20.5292Z" fill="#00966D"/>
</g>
</svg>
