<?xml version="1.0" encoding="UTF-8"?>
<svg xmlns="http://www.w3.org/2000/svg" xmlns:xlink="http://www.w3.org/1999/xlink" width="px" height="28px" viewBox="0 0 28 28" version="1.1">
<g id="surface1">
<path style=" stroke:none;fill-rule:nonzero;fill:rgb(0%,58.823529%,42.745098%);fill-opacity:1;" d="M 14 2.332031 C 7.558594 2.332031 2.332031 7.558594 2.332031 14 C 2.332031 20.441406 7.558594 25.667969 14 25.667969 C 20.441406 25.667969 25.667969 20.441406 25.667969 14 C 25.667969 7.558594 20.441406 2.332031 14 2.332031 Z M 14 23.332031 C 8.855469 23.332031 4.667969 19.144531 4.667969 14 C 4.667969 8.855469 8.855469 4.667969 14 4.667969 C 19.144531 4.667969 23.332031 8.855469 23.332031 14 C 23.332031 19.144531 19.144531 23.332031 14 23.332031 Z M 19.355469 8.84375 L 11.667969 16.53125 L 8.644531 13.523438 L 7 15.167969 L 11.667969 19.832031 L 21 10.5 Z M 19.355469 8.84375 "/>
</g>
</svg>
