<?xml version="1.0" encoding="UTF-8"?>
<svg xmlns="http://www.w3.org/2000/svg" xmlns:xlink="http://www.w3.org/1999/xlink" width="px" height="28px" viewBox="0 0 28 28" version="1.1">
<g id="surface1">
<path style=" stroke:none;fill-rule:nonzero;fill:rgb(0%,0%,0%);fill-opacity:1;" d="M 26.5 4.757812 C 25.835938 3.960938 24.847656 3.5 23.8125 3.5 L 4.949219 3.5 L 4.898438 3.089844 C 4.691406 1.328125 3.199219 0 1.425781 0 L 1.167969 0 C 0.523438 0 0 0.523438 0 1.167969 C 0 1.8125 0.523438 2.332031 1.167969 2.332031 L 1.425781 2.332031 C 2.015625 2.332031 2.515625 2.777344 2.585938 3.363281 L 4.191406 17.011719 C 4.535156 19.953125 7.023438 22.167969 9.984375 22.167969 L 22.167969 22.167969 C 22.8125 22.167969 23.332031 21.644531 23.332031 21 C 23.332031 20.355469 22.8125 19.832031 22.167969 19.832031 L 9.984375 19.832031 C 8.503906 19.828125 7.1875 18.894531 6.691406 17.5 L 20.601562 17.5 C 23.421875 17.5 25.839844 15.480469 26.339844 12.703125 L 27.257812 7.621094 C 27.441406 6.601562 27.164062 5.550781 26.5 4.757812 Z M 26.5 4.757812 "/>
<path style=" stroke:none;fill-rule:nonzero;fill:rgb(0%,0%,0%);fill-opacity:1;" d="M 10.5 25.667969 C 10.5 26.957031 9.457031 28 8.167969 28 C 6.878906 28 5.832031 26.957031 5.832031 25.667969 C 5.832031 24.378906 6.878906 23.332031 8.167969 23.332031 C 9.457031 23.332031 10.5 24.378906 10.5 25.667969 Z M 10.5 25.667969 "/>
<path style=" stroke:none;fill-rule:nonzero;fill:rgb(0%,0%,0%);fill-opacity:1;" d="M 22.167969 25.667969 C 22.167969 26.957031 21.121094 28 19.832031 28 C 18.542969 28 17.5 26.957031 17.5 25.667969 C 17.5 24.378906 18.542969 23.332031 19.832031 23.332031 C 21.121094 23.332031 22.167969 24.378906 22.167969 25.667969 Z M 22.167969 25.667969 "/>
</g>
</svg>
