<?xml version="1.0" encoding="UTF-8"?>
<svg xmlns="http://www.w3.org/2000/svg" xmlns:xlink="http://www.w3.org/1999/xlink" width="px" height="28px" viewBox="0 0 28 28" version="1.1">
<g id="surface1">
<path style=" stroke:none;fill-rule:nonzero;fill:rgb(0%,0%,0%);fill-opacity:1;" d="M 19.367188 16.332031 C 19.132812 16.214844 17.617188 15.515625 17.382812 15.398438 C 17.148438 15.285156 16.917969 15.285156 16.683594 15.515625 C 16.449219 15.75 15.984375 16.449219 15.75 16.683594 C 15.632812 16.917969 15.398438 16.917969 15.167969 16.800781 C 14.351562 16.449219 13.535156 15.984375 12.832031 15.398438 C 12.25 14.816406 11.667969 14.117188 11.199219 13.417969 C 11.082031 13.183594 11.199219 12.949219 11.316406 12.832031 C 11.433594 12.714844 11.550781 12.484375 11.785156 12.367188 C 11.898438 12.25 12.015625 12.015625 12.015625 11.898438 C 12.132812 11.785156 12.132812 11.550781 12.015625 11.433594 C 11.898438 11.316406 11.316406 9.917969 11.082031 9.332031 C 10.964844 8.515625 10.734375 8.515625 10.5 8.515625 L 9.917969 8.515625 C 9.683594 8.515625 9.332031 8.75 9.214844 8.867188 C 8.515625 9.566406 8.167969 10.382812 8.167969 11.316406 C 8.285156 12.367188 8.632812 13.417969 9.332031 14.351562 C 10.617188 16.214844 12.25 17.734375 14.234375 18.667969 C 14.816406 18.898438 15.285156 19.132812 15.867188 19.25 C 16.449219 19.484375 17.035156 19.484375 17.734375 19.367188 C 18.550781 19.25 19.25 18.667969 19.714844 17.964844 C 19.949219 17.5 19.949219 17.035156 19.832031 16.566406 L 19.367188 16.332031 M 22.285156 5.714844 C 17.734375 1.167969 10.382812 1.167969 5.832031 5.714844 C 2.101562 9.449219 1.398438 15.167969 3.964844 19.714844 L 2.332031 25.667969 L 8.515625 24.035156 C 10.265625 24.964844 12.132812 25.433594 14 25.433594 C 20.417969 25.433594 25.550781 20.300781 25.550781 13.882812 C 25.667969 10.851562 24.382812 7.933594 22.285156 5.714844 M 19.132812 22.050781 C 17.617188 22.984375 15.867188 23.566406 14 23.566406 C 12.25 23.566406 10.617188 23.101562 9.101562 22.285156 L 8.75 22.050781 L 5.132812 22.984375 L 6.066406 19.484375 L 5.832031 19.132812 C 3.035156 14.464844 4.433594 8.632812 8.984375 5.714844 C 13.535156 2.800781 19.367188 4.316406 22.167969 8.75 C 24.964844 13.300781 23.683594 19.25 19.132812 22.050781 "/>
</g>
</svg>
