<svg width="100" height="40" viewBox="0 0 100 40" fill="none" xmlns="http://www.w3.org/2000/svg">
<g id="amex">
<path id="Amex" fill-rule="evenodd" clip-rule="evenodd" d="M31.6265 35.9999V22.1484H41.6047L42.6753 24.1997L43.7813 22.1484H79.9999V35.0446C79.9999 35.0446 79.0527 35.986 77.9573 35.9999H57.9023L56.6952 33.8164V35.9999H52.7399V32.2726C52.7399 32.2726 52.1996 32.7929 51.0316 32.7929H49.6853V35.9999H43.6966L42.6276 33.9046L41.5421 35.9999H31.6265ZM20 11.7104L22.245 4H26.1276L27.4017 8.31906V4H32.228L32.9865 7.12169L33.7218 4H55.3872V5.56938C55.3872 5.56938 56.5262 4 58.3979 4L65.4276 4.03619L66.6796 8.29873V4H70.7186L71.8302 6.44849V4H75.9063V17.8515H71.8302L70.7649 15.395V17.8515H64.8308L64.234 15.668H62.6387L62.0517 17.8515H58.0274C56.4168 17.8515 55.3872 16.3141 55.3872 16.3141V17.8515H49.3195L48.1152 15.668V17.8515H25.5524L24.9561 15.668H23.3659L22.7737 17.8515H20V11.7104ZM20.0117 16.0747L23.0398 5.70312H25.3354L28.3606 16.0747H26.3458L25.7899 13.9978H22.5419L21.9831 16.0747H20.0117ZM25.1505 11.7464L24.1604 8.11719L23.1675 11.7464H25.1505ZM28.5679 16.0747V5.70312L31.3694 5.71845L32.9988 12.4054L34.5893 5.70312H37.3684V16.0747H35.6083V8.43248L33.7425 16.0747H32.1989L30.328 8.43248V16.0747H28.5679ZM38.5728 16.0747V5.70312H44.3162V8.02308H40.3514V9.79716H44.2236V11.9806H40.3514V13.823H44.3162V16.0747H38.5728ZM45.3374 16.0747V5.70312H49.2542C50.552 5.70312 51.7149 6.88537 51.7149 9.06791C51.7149 10.9337 50.7344 12.1354 49.784 12.2536L52.0999 16.0747H49.949L47.8386 12.39H47.0975V16.0747H45.3374ZM49.1106 8.02344H47.0986V10.2069H49.1366C49.4894 10.2069 49.9443 9.80421 49.9443 9.11518C49.9443 8.5796 49.5932 8.02344 49.1106 8.02344ZM54.2293 16.0747H52.4321V5.70312H54.2293V16.0747ZM58.4923 16.0747H58.1044C56.2275 16.0747 55.0879 13.8963 55.0879 10.9315C55.0879 7.89353 56.2147 5.70312 58.5849 5.70312H60.5303V8.15954H58.5138C57.5516 8.15954 56.8711 9.26571 56.8711 10.9571C56.8711 12.9657 57.6492 13.8093 58.7702 13.8093H59.2334L58.4923 16.0747ZM59.2915 16.0747L62.3196 5.70312H64.6152L67.6404 16.0747H65.6255L65.0697 13.9978H61.8216L61.2629 16.0747H59.2915ZM64.4298 11.7464L63.4397 8.11719L62.4468 11.7464H64.4298ZM67.8472 16.0747V5.70312H70.0849L72.9422 12.2195V5.70312H74.7023V16.0747H72.5369L69.6073 9.38776V16.0747H67.8472ZM32.8306 34.2308V23.8592H38.574V26.1792H34.6092V27.9533H38.4814V30.1367H34.6092V31.9791H38.574V34.2308H32.8306ZM60.9727 34.2308V23.8592H66.7161V26.1792H62.7513V27.9533H66.605V30.1367H62.7513V31.9791H66.7161V34.2308H60.9727ZM38.7966 34.2308L41.593 29.109L38.73 23.8592H40.9475L42.6526 27.1046L44.3635 23.8592H46.4941L43.6687 29.045L46.4703 34.2308H44.2532L42.5976 31.0366L40.9822 34.2308H38.7966ZM46.6807 34.227V23.8555H50.5685C52.1638 23.8555 53.0958 25.3701 53.0958 27.3439C53.0958 29.7266 51.9075 30.9518 50.3398 30.9518H48.4871V34.227H46.6807ZM50.4375 26.1992H48.4863V28.5874H50.4317C50.9458 28.5874 51.306 28.0855 51.306 27.3933C51.306 26.6565 50.9439 26.1992 50.4375 26.1992ZM53.8599 34.227V23.8555H57.7767C59.0745 23.8555 60.2373 25.0377 60.2373 27.2202C60.2373 29.086 59.2569 30.2877 58.3064 30.4059L60.6223 34.227H58.4714L56.3611 30.5424H55.62V34.227H53.8599ZM57.6331 26.1758H55.6211V28.3593H57.6591C58.0119 28.3593 58.4668 27.9566 58.4668 27.2675C58.4668 26.7319 58.1157 26.1758 57.6331 26.1758ZM67.5326 34.2308V31.9791H71.0551C71.5763 31.9791 71.802 31.5641 71.802 31.1091C71.802 30.6731 71.577 30.2323 71.0551 30.2323H69.4633C68.0797 30.2323 67.3091 28.9904 67.3091 27.1259C67.3091 25.4629 68.0147 23.8592 70.0708 23.8592H73.4984L72.7573 26.1928H69.7929C69.2262 26.1928 69.0518 26.6309 69.0518 27.0492C69.0518 27.4791 69.2674 27.9533 69.7003 27.9533H71.3677C72.9101 27.9533 73.5794 29.2421 73.5794 30.93C73.5794 32.7445 72.8336 34.2308 71.2838 34.2308H67.5326ZM73.7328 34.2308V31.9791H77.2553C77.7765 31.9791 78.0022 31.5641 78.0022 31.1091C78.0022 30.6731 77.7772 30.2323 77.2553 30.2323H75.6635C74.2799 30.2323 73.5093 28.9904 73.5093 27.1259C73.5093 25.4629 74.2149 23.8592 76.271 23.8592H79.6986L78.9575 26.1928H75.9931C75.4264 26.1928 75.252 26.6309 75.252 27.0492C75.252 27.4791 75.4676 27.9533 75.9005 27.9533H77.5679C79.1103 27.9533 79.7796 29.2421 79.7796 30.93C79.7796 32.7445 79.0338 34.2308 77.484 34.2308H73.7328Z" fill="#006FCF"/>
</g>
</svg>
