<svg width="48" height="32" viewBox="0 0 48 32" fill="none" xmlns="http://www.w3.org/2000/svg">
<g id="International/Bank/Masterrcard">
<path id="path3808" fill-rule="evenodd" clip-rule="evenodd" d="M13.777 28.1378V29.7777V31.4175H12.9385V31.0193C12.6726 31.3147 12.269 31.5 11.7205 31.5C10.6391 31.5 9.79134 30.7798 9.79134 29.7777C9.79134 28.7763 10.6391 28.0553 11.7205 28.0553C12.269 28.0553 12.6726 28.2407 12.9385 28.536V28.1378H13.777ZM11.8248 28.7281C11.099 28.7281 10.6548 29.2016 10.6548 29.7781C10.6548 30.3546 11.099 30.8282 11.8248 30.8282C12.5183 30.8282 12.9865 30.375 12.9865 29.7781C12.9865 29.1812 12.5183 28.7281 11.8248 28.7281ZM42.1128 29.7781C42.1128 29.2016 42.557 28.7281 43.2828 28.7281C43.9773 28.7281 44.4446 29.1812 44.4446 29.7781C44.4446 30.375 43.9773 30.8282 43.2828 30.8282C42.557 30.8282 42.1128 30.3546 42.1128 29.7781ZM45.236 26.8207V29.7777V31.4175H44.3965V31.0193C44.1306 31.3147 43.727 31.5 43.1785 31.5C42.0971 31.5 41.2494 30.7798 41.2494 29.7777C41.2494 28.7763 42.0971 28.0553 43.1785 28.0553C43.727 28.0553 44.1306 28.2407 44.3965 28.536V26.8207H45.236ZM24.1857 28.6927C24.7259 28.6927 25.0731 28.981 25.1618 29.4883H23.1606C23.2502 29.0147 23.5882 28.6927 24.1857 28.6927ZM22.2813 29.7777C22.2813 28.7551 23.0718 28.0553 24.2021 28.0553C25.2825 28.0553 26.025 28.7551 26.0333 29.7777C26.0333 29.8735 26.025 29.963 26.0167 30.0518H23.153C23.274 30.6424 23.7662 30.8552 24.3064 30.8552C24.6934 30.8552 25.1052 30.7311 25.4284 30.512L25.8394 31.0406C25.3712 31.3767 24.8393 31.5 24.2584 31.5C23.1041 31.5 22.2813 30.8206 22.2813 29.7777ZM34.3271 29.7781C34.3271 29.2016 34.7713 28.7281 35.4972 28.7281C36.1907 28.7281 36.6589 29.1812 36.6589 29.7781C36.6589 30.375 36.1907 30.8282 35.4972 30.8282C34.7713 30.8282 34.3271 30.3546 34.3271 29.7781ZM37.4493 28.1378V29.7777V31.4175H36.6108V31.0193C36.3439 31.3147 35.9413 31.5 35.3927 31.5C34.3113 31.5 33.4636 30.7798 33.4636 29.7777C33.4636 28.7763 34.3113 28.0553 35.3927 28.0553C35.9413 28.0553 36.3439 28.2407 36.6108 28.536V28.1378H37.4493ZM29.5914 29.7777C29.5914 30.7727 30.4059 31.5 31.6489 31.5C32.2298 31.5 32.6167 31.39 33.036 31.1089L32.6333 30.5324C32.3184 30.7248 31.9878 30.8277 31.624 30.8277C30.9545 30.8206 30.4622 30.4091 30.4622 29.7777C30.4622 29.1462 30.9545 28.7347 31.624 28.7276C31.9878 28.7276 32.3184 28.8305 32.6333 29.0229L33.036 28.4464C32.6167 28.1653 32.2298 28.0553 31.6489 28.0553C30.4059 28.0553 29.5914 28.7826 29.5914 29.7777ZM39.3858 28.5364C39.6037 28.2482 39.9187 28.0558 40.4025 28.0558C40.5725 28.0558 40.8144 28.0833 41 28.1453L40.7415 28.8176C40.5642 28.7556 40.3869 28.7351 40.2169 28.7351C39.6684 28.7351 39.3941 29.0367 39.3941 29.5794V31.418H38.5547V28.1383H39.3858V28.5364ZM17.9243 28.3985C17.5207 28.1723 16.9648 28.0553 16.3516 28.0553C15.3746 28.0553 14.7457 28.4535 14.7457 29.1054C14.7457 29.6402 15.2139 29.9701 16.0764 30.073L16.4726 30.1209C16.9325 30.1759 17.1495 30.2787 17.1495 30.4641C17.1495 30.7178 16.8429 30.8623 16.2703 30.8623C15.6895 30.8623 15.2702 30.7044 14.9876 30.5191L14.5924 31.0743C15.0523 31.3626 15.6331 31.5 16.262 31.5C17.3757 31.5 18.0212 31.0539 18.0212 30.4295C18.0212 29.8531 17.5133 29.5515 16.6739 29.4486L16.2786 29.3999C15.9157 29.3591 15.6248 29.2978 15.6248 29.0779C15.6248 28.8376 15.8991 28.6938 16.359 28.6938C16.8512 28.6938 17.3277 28.8517 17.5613 28.975L17.9243 28.3985ZM27.7281 28.5364C27.9451 28.2482 28.26 28.0558 28.7439 28.0558C28.9138 28.0558 29.1558 28.0833 29.3414 28.1453L29.0828 28.8176C28.9055 28.7556 28.7282 28.7351 28.5583 28.7351C28.0098 28.7351 27.7355 29.0367 27.7355 29.5794V31.418H26.897V28.1383H27.7281V28.5364ZM21.5876 28.1378H20.2162V27.1427H19.3685V28.1378H18.5863V28.7897H19.3685V30.2858C19.3685 31.0468 19.7157 31.5 20.7075 31.5C21.0714 31.5 21.4906 31.4042 21.7566 31.2463L21.5146 30.6353C21.2644 30.7586 20.9901 30.8206 20.7722 30.8206C20.3529 30.8206 20.2162 30.6007 20.2162 30.2717V28.7897H21.5876V28.1378ZM9.04973 29.3595V31.418H8.20199V29.5928C8.20199 29.0367 7.92772 28.7281 7.35517 28.7281C6.79831 28.7281 6.41138 29.0305 6.41138 29.5999V31.418H5.56363V29.5928C5.56363 29.0367 5.28198 28.7281 4.72512 28.7281C4.15165 28.7281 3.78042 29.0305 3.78042 29.5999V31.418H2.93359L2.93359 28.1383H3.77303V28.5427C4.08793 28.1587 4.49056 28.0558 4.90243 28.0558C5.4916 28.0558 5.91086 28.2757 6.17682 28.6393C6.53235 28.1791 7.04026 28.0487 7.53247 28.0558C8.46887 28.0629 9.04973 28.5844 9.04973 29.3595Z" fill="#231F20"/>
<path id="path3810" d="M30.3553 22.5648H17.6465V3.14084H30.3553V22.5648Z" fill="#FF5F00"/>
<path id="path3814" d="M18.2132 12.8538C18.2132 8.91356 20.3536 5.40371 23.6867 3.14182C21.2493 1.48781 18.1731 0.500586 14.83 0.500586C6.91558 0.500586 0.5 6.03122 0.5 12.8538C0.5 19.6764 6.91558 25.207 14.83 25.207C18.1731 25.207 21.2493 24.2198 23.6867 22.5658C20.3536 20.3039 18.2132 16.7941 18.2132 12.8538Z" fill="#EB001B"/>
<path id="path3822" d="M47.1867 13.0188C47.1867 19.7502 40.7713 25.207 32.8572 25.207C29.5142 25.207 26.4382 24.233 24 22.6011C27.3339 20.3694 29.4741 16.9064 29.4741 13.0188C29.4741 9.13112 27.3339 5.66813 24 3.43644C26.4382 1.80452 29.5142 0.830479 32.8572 0.830479C40.7713 0.830479 47.1867 6.28727 47.1867 13.0188Z" fill="#F79E1B"/>
</g>
</svg>
