<svg width="68" height="14" viewBox="0 0 68 14" fill="none" xmlns="http://www.w3.org/2000/svg">
<g id="International">
<path id="Fill 1" fill-rule="evenodd" clip-rule="evenodd" d="M8.16978 0H2.87443C2.51203 0 2.20384 0.20192 2.14723 0.476358L0.00553947 10.8897C-0.0369691 11.0953 0.170585 11.2804 0.442337 11.2804H2.97029C3.3327 11.2804 3.64089 11.0787 3.69749 10.8037L4.27505 7.99496C4.33078 7.72003 4.63962 7.51811 5.00138 7.51811H6.67765C10.1657 7.51811 12.1788 6.22359 12.7048 3.65851C12.9416 2.53614 12.7147 1.65445 12.0294 1.03688C11.2768 0.358765 9.94191 0 8.16978 0ZM8.78061 3.80373C8.49108 5.26092 7.03928 5.26092 5.63563 5.26092H4.83643L5.39706 2.53949C5.43046 2.37499 5.61611 2.25391 5.83299 2.25391H6.1993C7.15553 2.25391 8.05753 2.25391 8.52361 2.67188C8.80165 2.92121 8.88667 3.29178 8.78061 3.80373Z" fill="#28356A"/>
<path id="Fill 2" fill-rule="evenodd" clip-rule="evenodd" d="M24.1342 3.67905H21.5985C21.3825 3.67905 21.1957 3.80014 21.1625 3.96463L21.0502 4.50852L20.873 4.31142C20.3241 3.70034 19.0998 3.49609 17.8781 3.49609C15.0758 3.49609 12.6825 5.12376 12.2165 7.40692C11.9742 8.54576 12.3186 9.63486 13.1612 10.3943C13.9339 11.0925 15.0396 11.3836 16.355 11.3836C18.6129 11.3836 19.8647 10.2702 19.8647 10.2702L19.7517 10.8106C19.7092 11.0172 19.9168 11.2025 20.187 11.2025H22.471C22.8343 11.2025 23.1409 11.0006 23.1982 10.7256L24.5687 4.06975C24.612 3.86484 24.4051 3.67905 24.1342 3.67905ZM20.5995 7.46398C20.3549 8.57487 19.2052 9.32068 17.7386 9.32068C17.0023 9.32068 16.4139 9.13955 16.0359 8.79642C15.6611 8.45562 15.5189 7.97044 15.6379 7.43005C15.8665 6.32864 17.0355 5.55838 18.4797 5.55838C19.1998 5.55838 19.7851 5.74201 20.1707 6.08796C20.557 6.43775 20.7103 6.92592 20.5995 7.46398Z" fill="#28356A"/>
<path id="Fill 3" fill-rule="evenodd" clip-rule="evenodd" d="M37.4435 3.84375H34.8952C34.6521 3.84375 34.4237 3.93639 34.286 4.09141L30.7714 8.06145L29.2817 4.24626C29.188 4.00758 28.9008 3.84375 28.5755 3.84375H26.0716C25.7671 3.84375 25.5559 4.07178 25.6526 4.2915L28.4595 10.6082L25.8207 13.465C25.6131 13.6901 25.8222 13.9995 26.1807 13.9995H28.7258C28.9674 13.9995 29.1934 13.9091 29.3305 13.7573L37.8057 4.37516C38.0087 4.15079 37.8003 3.84375 37.4435 3.84375Z" fill="#28356A"/>
<path id="Fill 4" fill-rule="evenodd" clip-rule="evenodd" d="M45.9391 0H40.6431C40.2816 0 39.9734 0.20192 39.9168 0.476358L37.7751 10.8897C37.7326 11.0953 37.9401 11.2804 38.2104 11.2804H40.9281C41.1803 11.2804 41.3963 11.1392 41.4358 10.9468L42.0437 7.99496C42.0994 7.72003 42.4085 7.51811 42.77 7.51811H44.4457C47.9344 7.51811 49.9468 6.22359 50.4734 3.65851C50.7111 2.53614 50.4827 1.65445 49.7974 1.03688C49.0455 0.358765 47.7114 0 45.9391 0ZM46.5503 3.80373C46.2614 5.26092 44.8096 5.26092 43.4051 5.26092H42.6069L43.1682 2.53949C43.2014 2.37499 43.3858 2.25391 43.6033 2.25391H43.9696C44.925 2.25391 45.8278 2.25391 46.2939 2.67188C46.5719 2.92121 46.6563 3.29178 46.5503 3.80373Z" fill="#298FC2"/>
<path id="Fill 5" fill-rule="evenodd" clip-rule="evenodd" d="M61.8984 3.67905H59.3642C59.1466 3.67905 58.9616 3.80014 58.9291 3.96463L58.8168 4.50852L58.6387 4.31142C58.0898 3.70034 56.8664 3.49609 55.6444 3.49609C52.8424 3.49609 50.4499 5.12376 49.9839 7.40692C49.7423 8.54576 50.0852 9.63486 50.9275 10.3943C51.702 11.0925 52.8059 11.3836 54.1215 11.3836C56.3792 11.3836 57.6313 10.2702 57.6313 10.2702L57.5183 10.8106C57.4758 11.0172 57.6831 11.2025 57.9551 11.2025H60.2384C60.5999 11.2025 60.9081 11.0006 60.9647 10.7256L62.3359 4.06975C62.3777 3.86484 62.1702 3.67905 61.8984 3.67905ZM58.3638 7.46398C58.1207 8.57487 56.9692 9.32068 55.5027 9.32068C54.7679 9.32068 54.178 9.13955 53.8 8.79642C53.4254 8.45562 53.2844 7.97044 53.402 7.43005C53.6321 6.32864 54.7996 5.55838 56.2438 5.55838C56.9638 5.55838 57.5492 5.74201 57.9348 6.08796C58.3226 6.43775 58.4759 6.92592 58.3638 7.46398Z" fill="#298FC2"/>
<path id="Fill 6" fill-rule="evenodd" clip-rule="evenodd" d="M64.677 0.286247L62.5036 10.8902C62.4611 11.0958 62.6684 11.2809 62.9387 11.2809H65.1237C65.487 11.2809 65.795 11.0792 65.8507 10.8042L67.9939 0.391365C68.0367 0.185786 67.8291 0 67.5589 0H65.1122C64.8962 0.000498978 64.7104 0.121751 64.677 0.286247Z" fill="#298FC2"/>
</g>
</svg>
