<svg width="68" height="14" viewBox="0 0 68 14" fill="none" xmlns="http://www.w3.org/2000/svg">
<path id="visa-logo" fill-rule="evenodd" clip-rule="evenodd" d="M17.0007 13.8903H11.1157L6.70273 3.02951C6.49327 2.52991 6.04852 2.08824 5.39432 1.88008C3.76168 1.35695 1.96261 0.940616 0 0.730641V0.3125H9.48023C10.7886 0.3125 11.7699 0.940616 11.9335 1.6701L14.2232 9.50436L20.1053 0.3125H25.8267L17.0007 13.8903ZM29.0979 13.8903H23.5401L28.1166 0.3125H33.6745L29.0979 13.8903ZM40.865 4.07461C41.0286 3.34332 42.0099 2.92518 43.1548 2.92518C44.9538 2.82019 46.9136 3.03016 48.5491 3.55148L49.5304 0.628116C47.8949 0.209975 46.0958 0 44.4632 0C39.0688 0 35.1436 1.88073 35.1436 4.49094C35.1436 6.47666 37.924 7.51929 39.8866 8.14741C42.0099 8.77372 42.8276 9.19186 42.6641 9.81816C42.6641 10.7576 41.0286 11.1758 39.3959 11.1758C37.4333 11.1758 35.4707 10.8626 33.6745 10.3395L32.6932 13.2647C34.6558 13.786 36.7791 13.996 38.7417 13.996C44.7903 14.0991 48.5491 12.2202 48.5491 9.40002C48.5491 5.84854 40.865 5.64038 40.865 4.07461ZM68.0002 13.8903L63.5871 0.3125H58.847C57.8657 0.3125 56.8844 0.730641 56.5573 1.35695L48.3855 13.8903H54.1069L55.2489 11.9064H62.2787L62.9329 13.8903H68.0002ZM59.6648 3.96875L61.2975 9.086H56.7209L59.6648 3.96875Z" fill="#172B85"/>
</svg>
